<svg xmlns="http://www.w3.org/2000/svg" viewBox="0 0 62.2 54.9"><defs><style>.cls-1{fill:none;stroke:#00b3be;stroke-miterlimit:10;stroke-width:1.8px;fill-rule:evenodd;}</style></defs><title>heart</title><g id="Слой_2" data-name="Слой 2"><g id="Слой_2-2" data-name="Слой 2"><path class="cls-1" d="M60.8,12.8a14.3,14.3,0,0,0-4.8-8.5,14.1,14.1,0,0,0-6.1-2.9A21.1,21.1,0,0,0,37.5,2.5a20.1,20.1,0,0,0-6,3.6c-.2.2-.4.3-.7,0a21.5,21.5,0,0,0-8.4-4.4,21,21,0,0,0-8.5-.7A15,15,0,0,0,6.9,3.7,13,13,0,0,0,3.4,7.5a17.7,17.7,0,0,0-2.4,8v3.1c.2,1.1.3,2.3.6,3.4a27.3,27.3,0,0,0,2.8,7.4,42,42,0,0,0,5.2,7.5,63,63,0,0,0,7,6.9,82.9,82.9,0,0,0,8.2,6.3l6,3.8a.7.7,0,0,0,.8,0,89.2,89.2,0,0,0,9-5.8A76.4,76.4,0,0,0,51,38.8a46.3,46.3,0,0,0,6.5-8.6A28,28,0,0,0,60.9,21c.1-.8.2-1.6.4-2.4V15.9C61.1,14.9,61,13.8,60.8,12.8Z"/></g></g></svg>