<svg x="0px" y="0px" viewBox="0 0 48 44" width="32" height="30" xmlns="http://www.w3.org/2000/svg">
	<path fill="#535051" d="M37.621,23.199v-7.195c0.031-5.484-3.656-9.125-6.824-10.57C29.887,5.016,28.953,4.696,28,4.461V4c0-2.207-1.793-4-4-4
		s-4,1.793-4,4v0.528c-0.855,0.234-1.699,0.535-2.516,0.91C13.98,7.055,10.434,10.946,10.398,16v7.199
		c0,5.109-1.804,9.497-5.363,13.036c-0.211,0.211-0.289,0.518-0.199,0.804c0.09,0.289,0.332,0.5,0.629,0.551l7.594,1.31
		c1.414,0.245,2.714,0.444,3.953,0.608C18.41,42.246,21.152,44,24.145,44c2.996,0,5.738-1.758,7.133-4.492
		c1.234-0.164,2.531-0.363,3.938-0.608l7.594-1.31c0.293-0.051,0.535-0.262,0.625-0.551c0.094-0.281,0.016-0.593-0.199-0.804
		C39.508,32.528,37.621,28.145,37.621,23.199L37.621,23.199z M21.602,4c0-1.324,1.074-2.398,2.398-2.398S26.398,2.676,26.398,4
		v0.145c-1.594-0.227-3.21-0.219-4.796,0.039V4z M24.145,42.399c-2.023,0-3.917-1.005-5.132-2.653
		c1.789,0.188,3.457,0.278,5.125,0.278c1.676,0,3.352-0.091,5.145-0.278C28.066,41.395,26.172,42.399,24.145,42.399L24.145,42.399z
		 M34.945,37.324c-1.535,0.262-2.941,0.477-4.273,0.648h-0.004c-0.586,0.074-1.156,0.138-1.715,0.195c-0.004,0-0.008,0-0.012,0
		c-0.512,0.051-1.012,0.094-1.508,0.129c-0.09,0.004-0.184,0.012-0.277,0.017c-0.426,0.03-0.852,0.05-1.27,0.065
		c-0.086,0.004-0.172,0.012-0.258,0.012c-0.996,0.035-1.977,0.035-2.973,0c-0.09,0-0.179-0.008-0.265-0.012
		c-0.414-0.016-0.832-0.035-1.254-0.061c-0.098-0.009-0.199-0.017-0.301-0.021c-0.477-0.035-0.965-0.074-1.457-0.125
		c-0.02-0.004-0.039-0.004-0.055-0.004c-0.554-0.058-1.121-0.121-1.699-0.195h-0.008c-1.336-0.168-2.746-0.387-4.289-0.651
		l-6.129-1.056C10.387,32.621,12,28.235,12,23.199v-7.195c0.027-4.348,3.109-7.707,6.152-9.113c0.907-0.414,1.844-0.727,2.797-0.945
		c0.008,0,0.02,0,0.028-0.004c1.968-0.442,4.066-0.461,6.062-0.051c0.012,0,0.019-0.004,0.031-0.004c1.043,0.219,2.07,0.547,3.059,1
		c2.953,1.351,5.918,4.687,5.891,9.113v7.199c0,4.829,1.738,9.316,5.051,13.066L34.945,37.324z M34.945,37.324"/>
	<path fill="#535051" d="M29.133,9.071c-3.098-1.418-6.895-1.418-9.973,0c-1.758,0.812-4.734,3.179-4.762,6.925c0,0.442,0.356,0.801,0.797,0.805
		h0.004c0.442,0,0.797-0.355,0.801-0.797c0.02-2.941,2.414-4.828,3.828-5.48c2.664-1.227,5.957-1.227,8.641,0
		c0.402,0.183,0.875,0.007,1.059-0.395C29.711,9.727,29.535,9.254,29.133,9.071L29.133,9.071z M29.133,9.071"/>
	<path fill="#535051" d="M3.84,16.235c-0.313-0.313-0.817-0.313-1.129,0C0.961,17.981,0,20.309,0,22.785c0,2.48,0.961,4.805,2.711,6.555
		c0.156,0.156,0.359,0.234,0.566,0.234c0.203,0,0.411-0.078,0.563-0.234c0.316-0.312,0.316-0.82,0-1.133
		c-1.445-1.445-2.238-3.371-2.238-5.422c0-2.05,0.793-3.976,2.238-5.418C4.152,17.055,4.152,16.547,3.84,16.235L3.84,16.235z
		 M3.84,16.235"/>
	<path fill="#535051" d="M6.645,27.754c0.203,0,0.41-0.082,0.566-0.234c0.312-0.316,0.312-0.82,0-1.133c-2.047-2.047-2.047-5.375,0-7.422
		c0.312-0.312,0.312-0.816,0-1.129c-0.313-0.312-0.82-0.312-1.133,0c-2.668,2.668-2.668,7.012,0,9.684
		C6.234,27.676,6.438,27.754,6.645,27.754L6.645,27.754z M6.645,27.754"/>
	<path fill="#535051" d="M45.289,16.235c-0.312-0.313-0.816-0.313-1.129,0c-0.316,0.312-0.316,0.82,0,1.132c1.445,1.446,2.238,3.368,2.238,5.418
		c0,2.051-0.793,3.976-2.238,5.422c-0.316,0.312-0.316,0.821,0,1.133c0.151,0.156,0.359,0.234,0.562,0.234
		c0.207,0,0.41-0.078,0.566-0.234C47.039,27.59,48,25.266,48,22.785C48,20.309,47.039,17.981,45.289,16.235L45.289,16.235z
		 M45.289,16.235"/>
	<path fill="#535051" d="M40.789,17.836c-0.312,0.313-0.312,0.817,0,1.129c2.047,2.047,2.047,5.375,0,7.422c-0.312,0.312-0.312,0.816,0,1.133
		c0.156,0.152,0.363,0.234,0.566,0.234c0.207,0,0.41-0.082,0.566-0.234c2.668-2.672,2.668-7.016,0-9.684
		C41.609,17.524,41.102,17.524,40.789,17.836L40.789,17.836z M40.789,17.836"/>
</svg>
