<svg xmlns="http://www.w3.org/2000/svg" width="35" height="26" viewBox="0 0 35 26"><path fill="#231f20" d="M11.99 5.92a4.56 4.56 0 1 1 0 9.11 4.56 4.56 0 0 1 0-9.11zm-3.57 4.56a3.57 3.57 0 1 0 7.15 0 3.57 3.57 0 0 0-7.15 0z"/><path fill="#231f20" d="M9.14 8.63l3.01 3.47v-1.68z"/><path fill="#ef4023" d="M17.7 6.8l-5.57 5.3.01-1.65z"/><path d="M.01 20.93c0 .58.47 1.05 1.05 1.05H3.1c.46 1.68 2 3.05 3.83 3.05a4.34 4.34 0 0 0 4.02-3.05h13.07A4.28 4.28 0 0 0 28 25.03c1.83 0 3.5-1.37 3.96-3.05h2.29c.58 0 .71-.47.71-1.05v-7.77c0-.25-.09-.5-.26-.7L28.93 5.4c-.2-.23-.49-.36-.79-.36h-5.12l-.04-3.01c0-.58-.4-1.05-.98-1.05H1.06C.48.97.01 1.44.01 2.02zm7.01 3.16a3.05 3.05 0 0 1 0-6.09 3.04 3.04 0 0 1 0 6.09zm3.93-3.1c.06-2.99-2.2-4-4.02-4-1.83 0-3.61 1.3-3.83 4H.98V1.92h21.03v19.05zM27.97 24a2.99 2.99 0 1 1 .02-5.98 2.99 2.99 0 0 1-.02 5.98zm3.99-3.03a4.1 4.1 0 0 0-3.96-4c-1.82 0-3.81 1.17-3.98 4h-1V6.03h4.96l6.01 7.18v7.77z"/></svg>