<svg xmlns="http://www.w3.org/2000/svg" width="30" height="30" viewBox="0 0 612 613"><path d="M535.58 565.3a9.57 9.57 0 0 1-19.13 0V20.17H19.15v573.66h573.72V67.97a9.57 9.57 0 0 1 19.13 0v535.45a9.58 9.58 0 0 1-10.19 9.54H10.46A9.58 9.58 0 0 1 .02 602.77V11.23A9.57 9.57 0 0 1 9.57 1.04h515.56a9.57 9.57 0 0 1 10.44 9.52zM258.2 96.64a9.57 9.57 0 0 1 0-19.13H449.5a9.57 9.57 0 0 1 0 19.13zm-76.54-19.13a9.57 9.57 0 0 1 9.57 9.57v76.51a9.57 9.57 0 0 1-9.57 9.57h-95.6a9.57 9.57 0 0 1-9.56-9.57V87.08a9.58 9.58 0 0 1 9.57-9.57zm-9.54 19.13H95.63v57.39h76.49zm401.66 468.64a9.57 9.57 0 0 1-19.13 0V48.84a9.57 9.57 0 0 1 19.13 0zm-487.7-315.6a9.57 9.57 0 0 1 0-19.13h191.27a9.57 9.57 0 0 1 0 19.12zm0 76.49a9.57 9.57 0 0 1 0-19.13h191.27a9.57 9.57 0 0 1 0 19.13zm-.01 153.07a9.57 9.57 0 0 1 0-19.13h363.48a9.57 9.57 0 0 1 0 19.13zm363.44-248.7a9.57 9.57 0 0 1 9.56 9.57V393.1a9.58 9.58 0 0 1-9.56 9.56h-95.65a9.58 9.58 0 0 1-9.57-9.56v-153a9.6 9.6 0 0 1 9.57-9.56zm-9.57 19.13h-76.52v133.86h76.52zM258.2 173.16a9.57 9.57 0 0 1 0-19.13H449.5a9.57 9.57 0 0 1 0 19.13zM86.1 402.68a9.57 9.57 0 0 1 0-19.13h191.26a9.57 9.57 0 0 1 0 19.13z"/></svg>
