<svg xmlns="http://www.w3.org/2000/svg" width="35" height="34" viewBox="0 0 35 34"><path fill="#f15c44" d="M23.92.92c-3.11 0-5.14 3.08-6.36 5.01C16.34 4 14.08.97 10.96.97 8.6.97 7.87 2.54 7.87 4.06a3.2 3.2 0 0 0 1.57 2.92H2.3C.94 6.98 0 8.45 0 9.79v5.15h1.97v15.72c0 1.33.86 2.35 2.21 2.35h26.64c1.35 0 2.2-1.02 2.2-2.35V14.94H35V9.79c0-1.2-.85-2.54-2-2.81h-7.5a3.2 3.2 0 0 0 1.53-2.92c0-1.52-.73-3.14-3.1-3.14zm-6.95 14.02L17 31.96H4.73c-.47 0-1.78-.9-1.78-1.75V14.94zm1.05 0h13.99v15.18c0 .61-1.22 1.84-1.8 1.84H18.01zm15.99-5.15v4.18H18.02V8.08h14.6s1.39 2.59 1.39 1.71zM1.02 13.97v-3.65c0-.85 1.02-2.24 1.8-2.24h14.14v5.89zm31.86-7.01l.11.02h.16zm-.31-.03l.31.03c-.1-.02-.2-.03-.31-.03zM9.03 4.21a2.14 2.14 0 0 1 2.1-2.22c1.52 0 4.48 2.63 5.8 4.99h-3.19c-2.18 0-4.66-.59-4.7-2.77zm12.18 2.77H18c1.32-2.36 4.2-5.09 5.67-5.09a2.38 2.38 0 0 1 2.25 2.32c0 2.13-2.53 2.77-4.71 2.77z"/></svg>