<svg xmlns="http://www.w3.org/2000/svg" height="11" viewBox="0 0 62 117" width="6"><defs id="defs6"><clipPath id="clipPath16" clipPathUnits="userSpaceOnUse"><path id="path18" d="m0 0h49.92v93.839h-49.92v-93.839z"/></clipPath></defs><g id="g10" transform="matrix(1.25 0 0 -1.25 0 117.3)"><g id="g12"><g id="g14" clip-path="url(#clipPath16)"><g id="g20" transform="translate(5.6021,1.9199)"><path id="path22" d="m0 0c-0.641-0.64-1.442-0.961-2.321-0.961-0.883 0-1.679 0.321-2.32 0.961-1.281 1.281-1.281 3.36 0 4.641l40.801 40.8-40.801 40.797c-1.281 1.282-1.281 3.364 0 4.641 1.277 1.281 3.359 1.281 4.641 0l43.117-43.117c1.281-1.281 1.281-3.363 0-4.641l-43.117-43.121z" fill="#231f20"/></g></g></g></g></svg>
