<svg xmlns="http://www.w3.org/2000/svg" width="55" height="37" viewBox="0 0 55 37"><path d="M13.63 28.87c-.74 0-1.7.9-1.7 1.63 0 .74.96 1.58 1.7 1.58s1.51-.84 1.51-1.58c0-.73-.77-1.63-1.51-1.63zm-12.67.3c0 1.47 1.26 1.8 2.73 1.8h3.23c.62 3.05 2.19 6.02 6.71 6.02 4.4 0 5.8-2.97 6.42-6.02h16.9c.86 4.65 3.49 6.02 6.71 6.02 3.22 0 6.03-1.55 6.53-6.02h3.79l.03-12.47L43.62 8.02l-8.56-.01h-.08V2.49C34.98 1.02 34.47 0 33 0H3.69C2.22 0 .97 1.02.97 2.49zm12.67 6a4.65 4.65 0 0 1-4.61-4.67c0-2.2 1.72-4.66 4.61-4.66 2.68 0 4.38 2.46 4.38 4.66 0 2.21-1.63 4.67-4.38 4.67zm6.42-6.12c-.62-3.05-3.2-5.04-6.42-5.04-3.22 0-6.09 1.99-6.71 5.04H3.01V1.94H33v27.11zm23.61 6.06a4.6 4.6 0 1 1 0-9.2 4.6 4.6 0 0 1 0 9.2zM52 29.05h-1.81c-.62-3.05-3.31-5.1-6.53-5.1s-6.09 2.05-6.71 5.1h-1.97V10h.08l7.46.01 9.5 9.6zM43.52 29a1.49 1.49 0 1 0 .01 2.97 1.49 1.49 0 0 0-.01-2.97z"/><path fill="#ef472b" d="M13.63 28.87c-.74 0-1.7.9-1.7 1.63 0 .74.96 1.58 1.7 1.58s1.51-.84 1.51-1.58c0-.73-.77-1.63-1.51-1.63zm-12.67.3c0 1.47 1.26 1.8 2.73 1.8h3.23c.62 3.05 2.19 6.02 6.71 6.02 4.4 0 5.8-2.97 6.42-6.02h16.9c.86 4.65 3.49 6.02 6.71 6.02 3.22 0 6.03-1.55 6.53-6.02h3.79l.03-12.47L43.62 8.02l-8.56-.01h-.08V2.49C34.98 1.02 34.47 0 33 0H3.69C2.22 0 .97 1.02.97 2.49zm12.67 6a4.65 4.65 0 0 1-4.61-4.67c0-2.2 1.72-4.66 4.61-4.66 2.68 0 4.38 2.46 4.38 4.66 0 2.21-1.63 4.67-4.38 4.67zm6.42-6.12c-.62-3.05-3.2-5.04-6.42-5.04-3.22 0-6.09 1.99-6.71 5.04H3.01V1.94H33v27.11zm23.61 6.06a4.6 4.6 0 1 1 0-9.2 4.6 4.6 0 0 1 0 9.2zM52 29.05h-1.81c-.62-3.05-3.31-5.1-6.53-5.1s-6.09 2.05-6.71 5.1h-1.97V10h.08l7.46.01 9.5 9.6zM43.52 29a1.49 1.49 0 1 0 .01 2.97 1.49 1.49 0 0 0-.01-2.97z"/></svg>