<?xml version="1.0" encoding="iso-8859-1"?>
<!-- Generator: Adobe Illustrator 19.0.0, SVG Export Plug-In . SVG Version: 6.00 Build 0)  -->
<svg version="1.1" id="Layer_1" xmlns="http://www.w3.org/2000/svg" xmlns:xlink="http://www.w3.org/1999/xlink" x="0px" y="0px"
	 viewBox="0 0 48 48" style="enable-background:new 0 0 48 48;" xml:space="preserve">
<g>
	<path d="M24,0C10.766,0,0,10.766,0,24c0,13.234,10.766,24,24,24c13.234,0,24-10.766,24-24C48,10.766,37.234,0,24,0L24,0z
		 M24,46.398C11.648,46.398,1.602,36.352,1.602,24C1.602,11.648,11.648,1.602,24,1.602c12.352,0,22.398,10.046,22.398,22.398
		C46.398,36.352,36.352,46.398,24,46.398L24,46.398z M24,46.398"/>
	<path d="M24.801,20.816v-8.113c0-0.441-0.359-0.801-0.801-0.801c-0.441,0-0.801,0.36-0.801,0.801v8.113
		c-1.117,0.293-1.996,1.168-2.285,2.286h-5.715c-0.441,0-0.801,0.359-0.801,0.8c0,0.442,0.36,0.801,0.801,0.801h5.715
		c0.356,1.375,1.598,2.399,3.086,2.399c1.766,0,3.199-1.434,3.199-3.2C27.199,22.414,26.176,21.176,24.801,20.816L24.801,20.816z
		 M24,25.504c-0.883,0-1.602-0.719-1.602-1.602c0-0.882,0.719-1.597,1.602-1.597s1.602,0.715,1.602,1.597
		C25.602,24.785,24.883,25.504,24,25.504L24,25.504z M24,25.504"/>
	<path d="M24,7.902c0.441,0,0.801-0.355,0.801-0.8V6.305c0-0.446-0.359-0.801-0.801-0.801c-0.441,0-0.801,0.355-0.801,0.801v0.797
		C23.199,7.547,23.559,7.902,24,7.902L24,7.902z M24,7.902"/>
	<path d="M24,39.902c-0.441,0-0.801,0.359-0.801,0.801v0.801c0,0.441,0.36,0.801,0.801,0.801c0.441,0,0.801-0.359,0.801-0.801
		v-0.801C24.801,40.262,24.441,39.902,24,39.902L24,39.902z M24,39.902"/>
	<path d="M41.602,23.102h-0.801c-0.441,0-0.801,0.359-0.801,0.8c0,0.442,0.359,0.801,0.801,0.801h0.801
		c0.441,0,0.797-0.359,0.797-0.801C42.398,23.461,42.043,23.102,41.602,23.102L41.602,23.102z M41.602,23.102"/>
	<path d="M7.199,23.102H6.398c-0.441,0-0.796,0.359-0.796,0.8c0,0.442,0.355,0.801,0.796,0.801h0.801
		C7.641,24.703,8,24.344,8,23.902C8,23.461,7.641,23.102,7.199,23.102L7.199,23.102z M7.199,23.102"/>
	<path d="M35.879,10.891l-0.567,0.566c-0.312,0.313-0.312,0.82,0,1.133c0.157,0.156,0.364,0.234,0.567,0.234
		c0.207,0,0.41-0.078,0.566-0.234l0.566-0.567c0.312-0.312,0.312-0.82,0-1.132C36.699,10.578,36.191,10.578,35.879,10.891
		L35.879,10.891z M35.879,10.891"/>
	<path d="M11.555,35.219l-0.567,0.562c-0.312,0.312-0.312,0.82,0,1.133c0.157,0.156,0.364,0.234,0.567,0.234
		c0.207,0,0.41-0.078,0.566-0.234l0.567-0.566c0.312-0.312,0.312-0.816,0-1.129C12.375,34.902,11.867,34.906,11.555,35.219
		L11.555,35.219z M11.555,35.219"/>
	<path d="M36.445,35.219c-0.312-0.316-0.82-0.316-1.134,0c-0.312,0.312-0.312,0.816,0,1.129l0.567,0.566
		c0.156,0.156,0.359,0.234,0.566,0.234c0.203,0,0.41-0.078,0.566-0.234c0.312-0.312,0.312-0.82,0-1.133L36.445,35.219z
		 M36.445,35.219"/>
	<path d="M12.121,10.891c-0.312-0.313-0.82-0.313-1.133,0c-0.312,0.312-0.312,0.82,0,1.132l0.567,0.567
		c0.156,0.156,0.359,0.234,0.566,0.234c0.203,0,0.41-0.078,0.567-0.234c0.312-0.313,0.312-0.82,0-1.133L12.121,10.891z
		 M12.121,10.891"/>
</g>
</svg>
