<?xml version="1.0" encoding="iso-8859-1"?>
<!-- Generator: Adobe Illustrator 19.0.0, SVG Export Plug-In . SVG Version: 6.00 Build 0)  -->
<svg version="1.1" id="Layer_1" xmlns="http://www.w3.org/2000/svg" xmlns:xlink="http://www.w3.org/1999/xlink" x="0px" y="0px"
	 viewBox="0 0 45.133 48" style="enable-background:new 0 0 45.133 48;" xml:space="preserve">
<g>
	<path d="M23.871,30.391c0.836-0.062,1.594-0.488,2.086-1.168l7.492-10.355c0.227-0.316,0.195-0.754-0.086-1.031
		c-0.277-0.277-0.715-0.313-1.031-0.086l-10.359,7.492c-0.676,0.492-1.098,1.254-1.164,2.086c-0.067,0.832,0.238,1.649,0.828,2.238
		c0.535,0.535,1.258,0.832,2.011,0.832C23.723,30.398,23.797,30.398,23.871,30.391L23.871,30.391z M22.402,27.453
		c0.032-0.367,0.219-0.699,0.512-0.914l6.316-4.57l-4.566,6.316c-0.219,0.297-0.551,0.48-0.918,0.512
		c-0.363,0.023-0.719-0.102-0.98-0.363C22.508,28.176,22.375,27.816,22.402,27.453L22.402,27.453z M22.402,27.453"/>
	<path d="M41.793,15.652c-0.008-0.019-0.008-0.035-0.016-0.05c-0.012-0.016-0.027-0.028-0.035-0.043
		c-0.809-1.387-1.766-2.676-2.852-3.848l1.715-1.715l1.133,1.129l3.395-3.395l-3.395-3.39l-3.395,3.39l1.133,1.133l-1.719,1.719
		C36.59,9.496,35.297,8.539,33.91,7.73c-0.016-0.011-0.023-0.027-0.039-0.035c-0.016-0.011-0.035-0.011-0.051-0.019
		c-2.477-1.426-5.254-2.375-8.219-2.723V4h1.199c1.101,0,2-0.898,2-2s-0.899-2-2-2h-7.199c-1.106,0-2,0.898-2,2s0.894,2,2,2h1.199
		v0.926c-0.863,0.09-1.727,0.23-2.578,0.426c-0.434,0.101-0.703,0.527-0.602,0.96c0.098,0.43,0.527,0.7,0.957,0.598
		c0.734-0.168,1.481-0.293,2.223-0.379l0.859-0.066c0.262-0.02,0.504-0.035,0.738-0.047V8c0,0.441,0.36,0.801,0.801,0.801
		S24,8.441,24,8V6.426c3.008,0.136,5.844,0.945,8.363,2.273l-0.789,1.367c-0.219,0.383-0.086,0.872,0.293,1.094
		c0.129,0.07,0.266,0.106,0.402,0.106c0.273,0,0.542-0.145,0.691-0.399l0.785-1.363c2.504,1.586,4.633,3.715,6.219,6.219
		l-1.363,0.785c-0.379,0.219-0.512,0.711-0.29,1.094C38.461,17.855,38.73,18,39.004,18c0.137,0,0.273-0.035,0.402-0.105l1.363-0.79
		c1.348,2.555,2.16,5.438,2.281,8.493h-1.582c-0.441,0-0.801,0.359-0.801,0.801c0,0.441,0.359,0.801,0.801,0.801h1.582
		c-0.121,3.059-0.934,5.938-2.281,8.496l-1.363-0.789c-0.383-0.223-0.875-0.095-1.095,0.293c-0.222,0.383-0.089,0.871,0.294,1.094
		l1.363,0.785c-1.59,2.504-3.715,4.629-6.219,6.219l-0.785-1.363c-0.223-0.387-0.715-0.516-1.094-0.293
		c-0.383,0.219-0.516,0.711-0.293,1.094l0.789,1.363c-2.523,1.332-5.355,2.137-8.367,2.277v-1.574C24,44.359,23.645,44,23.203,44
		c-0.445,0-0.801,0.359-0.801,0.801v1.578c-1.277-0.043-2.558-0.203-3.82-0.492c-0.43-0.102-0.859,0.172-0.961,0.602
		c-0.098,0.43,0.172,0.859,0.602,0.957C19.82,47.812,21.453,48,23.07,48c0.039,0,0.074-0.004,0.117-0.004
		c0.004,0,0.008,0.004,0.012,0.004c0.008,0,0.012-0.004,0.02-0.004c3.843-0.027,7.453-1.066,10.574-2.859
		c0.027-0.012,0.051-0.016,0.074-0.031c0.02-0.008,0.027-0.023,0.043-0.035c3.23-1.883,5.93-4.578,7.816-7.809
		c0.016-0.02,0.035-0.039,0.047-0.062c0.012-0.016,0.012-0.035,0.02-0.051c1.828-3.168,2.875-6.837,2.875-10.75
		C44.668,22.488,43.621,18.82,41.793,15.652L41.793,15.652z M41.738,6.602l1.129,1.128l-1.129,1.133L40.605,7.73L41.738,6.602z
		 M22.398,4.816V2.398h-2.796c-0.223,0-0.403-0.179-0.403-0.398c0-0.219,0.18-0.398,0.403-0.398h7.199
		c0.219,0,0.398,0.179,0.398,0.398c0,0.219-0.18,0.398-0.398,0.398H24v2.418c-0.277-0.011-0.543-0.015-0.801-0.015
		c-0.023,0-0.047,0-0.07,0c-0.02,0-0.039,0-0.059,0c-0.132,0-0.261,0.008-0.394,0.011C22.582,4.812,22.496,4.812,22.398,4.816
		L22.398,4.816z M22.398,4.816"/>
	<path d="M16,11.199h-4c-0.441,0-0.801,0.36-0.801,0.801s0.36,0.801,0.801,0.801h4c0.441,0,0.801-0.36,0.801-0.801
		S16.441,11.199,16,11.199L16,11.199z M16,11.199"/>
	<path d="M16,16.801H8c-0.441,0-0.801,0.355-0.801,0.801c0,0.441,0.36,0.796,0.801,0.796h8c0.441,0,0.801-0.355,0.801-0.796
		C16.801,17.156,16.441,16.801,16,16.801L16,16.801z M16,16.801"/>
	<path d="M16,22.398H4c-0.441,0-0.801,0.36-0.801,0.801C3.199,23.641,3.559,24,4,24h12c0.441,0,0.801-0.359,0.801-0.801
		C16.801,22.758,16.441,22.398,16,22.398L16,22.398z M16,22.398"/>
	<path d="M16,28H0.801C0.359,28,0,28.359,0,28.801s0.359,0.801,0.801,0.801H16c0.441,0,0.801-0.359,0.801-0.801S16.441,28,16,28
		L16,28z M16,28"/>
	<path d="M16,33.602H5.602c-0.446,0-0.801,0.355-0.801,0.797c0,0.445,0.355,0.801,0.801,0.801H16c0.441,0,0.801-0.355,0.801-0.801
		C16.801,33.957,16.441,33.602,16,33.602L16,33.602z M16,33.602"/>
	<path d="M16,39.199h-5.602c-0.441,0-0.796,0.359-0.796,0.801s0.355,0.801,0.796,0.801H16c0.441,0,0.801-0.359,0.801-0.801
		S16.441,39.199,16,39.199L16,39.199z M16,39.199"/>
</g>
</svg>
