<svg xmlns="http://www.w3.org/2000/svg" width="65" height="66" viewBox="0 0 65 66"><path fill="#f15c44" d="M62 30.91V16.28a6.2 6.2 0 0 0-6.16-6.33h-4.28l-4.39-7.88C46.51.87 45.73.12 44.35.12c-.64 0-1.28.16-1.84.47L25.7 9.95H6.39a6.33 6.33 0 0 0-6.33 6.33v43.44a6.26 6.26 0 0 0 6.33 6.24h49.45A6.12 6.12 0 0 0 62 59.72V46.96h3V30.91zM55.84 11.9c2.87 0 3.96 2.15 4.17 4.04h-5.17l-2.2-4.04zm-12.6-9.1c.6-.33 1.73-.1 2.06.5l6.98 12.64h-32.5zm16.82 57.58c0 2.1-2.12 3.63-4.22 3.63l-50.03-.08C3.7 63.93 2 61.9 2 59.8V15.7c0-2.1 1.7-3.8 3.8-3.8h16.66l-7.07 4.04H7.18c-.7 0-1.27.48-1.27 1.18s.57.85 1.27.85h52.88v12.94h-9.67c-4.3 0-7.8 3.42-7.8 7.71v.55c0 4.3 3.5 7.8 7.8 7.8h9.58zm2.9-15.37H50.4c-2.9 0-5.6-2.94-5.6-5.84v-.55c0-2.9 2.7-5.68 5.6-5.68h12.58zM54.27 39a2.8 2.8 0 1 1-5.58 0 2.8 2.8 0 0 1 5.58 0z"/></svg>