<svg xmlns="http://www.w3.org/2000/svg" width="12" height="10" viewBox="0 0 12 10"><path fill="#191919" d="M10.47.97H1.48C.68.97.03 1.62.03 2.42v6.1c0 .8.65 1.45 1.45 1.45h8.98c.8 0 1.46-.65 1.46-1.45v-6.1c0-.8-.65-1.45-1.45-1.45zm.79 7.55a.8.8 0 0 1-.79.79H1.48a.8.8 0 0 1-.79-.79v-6.1a.8.8 0 0 1 .79-.78h8.98c.44 0 .79.35.79.78v6.1zM7.53 5.4l2.9-2.6a.33.33 0 1 0-.44-.49L5.98 5.9l-.78-.7h-.01l-.05-.05-3.19-2.83c-.13-.12-.34-.11-.47.03a.33.33 0 0 0 .03.46l2.94 2.62-2.93 2.73a.33.33 0 0 0-.01.46c.07.07.15.1.24.1.08 0 .16-.02.23-.08l2.97-2.77.81.72c.06.06.14.08.22.08.08 0 .16-.03.22-.08l.83-.74 2.96 2.8c.06.05.15.08.23.08.09 0 .17-.03.24-.1a.34.34 0 0 0-.01-.47z"/></svg>