<?xml version="1.0" encoding="iso-8859-1"?>
<!-- Generator: Adobe Illustrator 19.0.0, SVG Export Plug-In . SVG Version: 6.00 Build 0)  -->
<svg version="1.1" id="Layer_1" xmlns="http://www.w3.org/2000/svg" xmlns:xlink="http://www.w3.org/1999/xlink" x="0px" y="0px"
	 viewBox="0 0 31.952 51.84" style="enable-background:new 0 0 31.952 51.84;" xml:space="preserve">
<g>
	<g>
		<defs>
			<rect id="SVGID_1_" x="0.001" width="31.92" height="51.84"/>
		</defs>
		<clipPath id="SVGID_2_">
			<use xlink:href="#SVGID_1_"  style="overflow:visible;"/>
		</clipPath>
		<path style="clip-path:url(#SVGID_2_);" d="M31.923,47.339L26.098,27c3.109-2.786,5.078-6.817,5.078-11.321
			c0-8.394-6.805-15.199-15.199-15.199c-8.395,0-15.2,6.805-15.2,15.199c0,4.488,1.957,8.512,5.051,11.293L0.031,47.218
			c-0.093,0.321,0.024,0.66,0.293,0.86c0.266,0.198,0.629,0.211,0.906,0.03l5.344-3.422l2.914,5.638
			c0.141,0.269,0.414,0.433,0.711,0.433c0.028,0,0.059-0.004,0.086-0.004c0.328-0.035,0.602-0.27,0.688-0.589l4.988-18.614
			l5.02,18.739c0.081,0.315,0.355,0.55,0.684,0.586c0.031,0.003,0.059,0.003,0.086,0.003c0.297,0,0.574-0.164,0.711-0.429
			l2.918-5.638l5.34,3.422c0.281,0.181,0.644,0.169,0.91-0.03C31.895,48.003,32.012,47.66,31.923,47.339L31.923,47.339z
			 M2.376,15.679c0-7.5,6.102-13.597,13.602-13.597c7.499,0,13.597,6.097,13.597,13.597s-6.098,13.602-13.597,13.602
			C8.478,29.281,2.376,23.179,2.376,15.679L2.376,15.679z M9.962,47.753L7.59,43.175c-0.102-0.199-0.285-0.347-0.504-0.406
			c-0.215-0.059-0.449-0.022-0.637,0.099l-4.297,2.754l5.028-17.56c2.105,1.5,4.605,2.48,7.324,2.742L9.962,47.753z M25.505,42.992
			c-0.192-0.121-0.422-0.157-0.641-0.099c-0.215,0.059-0.398,0.207-0.504,0.406l-2.371,4.578l-4.574-17.07
			c2.719-0.258,5.219-1.229,7.328-2.726l5.059,17.664L25.505,42.992z M25.505,42.992"/>
	</g>
	<path d="M15.978,25.281c5.3,0,9.597-4.301,9.597-9.602c0-5.301-4.297-9.597-9.597-9.597c-5.305,0-9.602,4.296-9.602,9.597
		C6.376,20.98,10.673,25.281,15.978,25.281L15.978,25.281z M15.978,7.679c4.41,0,7.999,3.59,7.999,8c0,4.41-3.59,8-7.999,8
		c-4.411,0-8-3.59-8-8C7.978,11.269,11.567,7.679,15.978,7.679L15.978,7.679z M15.978,7.679"/>
</g>
</svg>
