<svg  x="0px" y="0px" width="15" height="19"
	 viewBox="0 0 28.8 29">
<g>
	<g>
		<defs>
			<rect id="SVGID_1_" y="0.001" width="28.8" height="29"/>
		</defs>
		<clipPath id="SVGID_2_">
			<use xlink:href="#SVGID_1_"  style="overflow:visible;"/>
		</clipPath>
		<path style="clip-path:url(#SVGID_2_);" d="M0,28.478c0,0,9.277-29.657,28.59-28.441c0,0-2.395,3.879-8.441,5.133
			c0,0,2.816,0.343,5.098-0.418c0,0-1.371,4.414-8.82,5.019c0,0,4.105,1.067,5.93,0.457c0,0-0.496,3.289-8.083,4.922
			c-0.449,0.098-3.476,0.856-1.043,1.16c0,0,3.497,0.609,4.411,0.305c0,0-2.996,4.484-10.344,4.105c-0.723-0.039-1.063,0-1.063,0
			L0,28.478z M0,28.478"/>
	</g>
</g>
</svg>
