<svg xmlns="http://www.w3.org/2000/svg" width="20" height="16" viewBox="0 0 20 16"><path fill="#ef4023" d="M13.04.98l1.11 2.3.35.64h3.86c.44 0 .62.6.62.65l.04 9.81c0 .25-.4.61-.58.63H1.54c-.15-.02-.5-.31-.5-.65L1 4.55c0-.42.53-.62.62-.63h3.82l.36-.64L6.94.98zM6.23.01l-1.5 2.94H1.88c-.62 0-1.87.32-1.87 1.6v9.43c0 1.08.93 1.95 1.74 1.95H18.1c.81 0 1.83-.91 1.83-1.93V4.57c0-.65-.63-1.62-1.87-1.62H15.2L13.7.01zm3.74 5.9c1.56 0 3.05 1.58 3.05 3.22 0 1.63-1.49 2.96-3.05 2.96-1.57 0-3.05-1.33-3.05-2.96 0-1.64 1.48-3.22 3.05-3.22 1.56 0 0 0 0 0zM5.99 9.13c0 2.29 1.78 3.85 3.98 3.85s3.97-1.56 3.97-3.85c0-2.3-1.78-4.16-3.97-4.16a4.07 4.07 0 0 0-3.98 4.16z"/></svg>